<svg xmlns="http://www.w3.org/2000/svg" width="19.59" height="19.59" viewBox="0 0 19.59 19.59">
  <g id="Solid" transform="translate(-24 -24)">
    <path id="路径_3077" data-name="路径 3077" d="M33.986,149.43a1.013,1.013,0,0,0,1.433,1.433l3.821-3.821a1.013,1.013,0,0,0,0-1.433l-3.821-3.821a1.013,1.013,0,1,0-1.433,1.433l2.092,2.092H25.013a1.013,1.013,0,1,0,0,2.027H36.078Z" transform="translate(0 -112.53)" fill="#a301e8"/>
    <path id="路径_3078" data-name="路径 3078" d="M195.146,24h-9.457A1.689,1.689,0,0,0,184,25.689V27.04a1.013,1.013,0,1,0,2.027,0V26.027h8.782V41.564h-8.782V40.551a1.013,1.013,0,1,0-2.027,0V41.9a1.689,1.689,0,0,0,1.689,1.689h9.457a1.689,1.689,0,0,0,1.689-1.689V25.689A1.689,1.689,0,0,0,195.146,24Z" transform="translate(-153.245)" fill="#a301e8"/>
  </g>
</svg>
